<svg xmlns="http://www.w3.org/2000/svg" width="85.582" height="58.467" viewBox="0 0 85.582 58.467">
  <g id="cars" transform="translate(-28 -733.533)">
    <path id="Car-Icon" d="M-385.88,164.923c-.045-.5-.83-.519-.83-.519-.682-.163-.534-.593-.534-.593l4.861.178,1.748,1.274a12,12,0,0,0,2.816-.5l.622.03s3.023-1.334,5.039-1.956,7.529-1.956,7.529-1.956a70.719,70.719,0,0,1,14.613-1.245,24.561,24.561,0,0,1,5.513,1.008c4,1.482,11.827,6.077,11.827,6.077l2.43-.208s3.379.326,7.084.86a62.31,62.31,0,0,1,9.456,2.164,11.464,11.464,0,0,1,4.846,2.616l1.045,2.178s-.333,3.713-.289,4.2.778,1.111.778,1.111v1.69l-7.922.593c.682-3.675.326-6.284-1.126-8.185s-3.883-2.575-6.462-2.575-5.81,1.867-6.492,4.891a15.579,15.579,0,0,0-.163,5.721h-36.77c.378-4.468-.044-6.691-2.089-8.759s-4.669-2.223-7.581-1.645-4.691,3.735-4.846,5.847a14.949,14.949,0,0,0,.356,4.157l-7.248-1.311A9.573,9.573,0,0,1-389,176.439a16.885,16.885,0,0,1,.133-5.024,23.012,23.012,0,0,1,1.845-4.29s.311-1.067.311-1.134.511-.289.511-.289A.912.912,0,0,0-385.88,164.923Zm48.344,2.178c-4.09-3.2-11-6.136-11-6.136s-9.367.6-10.968.756a44.811,44.811,0,0,0-6.18,1.334,17.626,17.626,0,0,0-2.056,2.092.449.449,0,0,0,.317.747Zm-8.825-6.328,10.76,6.217,2.6-.2s-7.158-4.4-11.693-6.091Zm3.312,3.824s-.815.5-.815.652v1.6s.067.211.408.256,1.208.074,1.208.074a4.041,4.041,0,0,0-.385.8.669.669,0,0,0,.593.526,5.3,5.3,0,0,0,1.26-.037.948.948,0,0,0,.445-.445c0-.081-.423-.978-.423-.978l.207-.148.015-1.245A3.459,3.459,0,0,0-343.049,164.6Zm-43.35,4.55s1.3-2.312.645-2.345-1.645,2.034-1.768,2.623.122.7.122.7C-386.977,170.247-386.4,169.147-386.4,169.147Zm26.625-7.393.9,4.486.646.026-1.27-4.544Zm27.307,9.261s-4.179,6.492-4.624,6.669-19.519.711-19.519.711,18.63.4,19.83,0c.963-.321,3.957-5.305,5.1-7.265a.582.582,0,0,0-.444-.873l-3.5-.354Zm12.746-1.808s5.839,1.452,8.062,3.587a18.728,18.728,0,0,0,2.549.593,3.791,3.791,0,0,0-1.615-1.838c-1.356-.912-6.625-2.223-6.625-2.223Zm-53.7,2.831a6.358,6.358,0,0,0-6.358,6.358,6.358,6.358,0,0,0,6.358,6.358,6.358,6.358,0,0,0,6.358-6.358A6.358,6.358,0,0,0-373.416,172.037Zm0,1.467a4.891,4.891,0,0,0-4.891,4.891,4.891,4.891,0,0,0,4.891,4.891,4.891,4.891,0,0,0,4.891-4.891A4.891,4.891,0,0,0-373.416,173.5Zm51-1.467a6.358,6.358,0,0,0-6.358,6.358,6.358,6.358,0,0,0,6.358,6.358,6.358,6.358,0,0,0,6.358-6.358A6.358,6.358,0,0,0-322.419,172.037Zm0,1.467a4.891,4.891,0,0,0-4.891,4.891,4.891,4.891,0,0,0,4.891,4.891,4.891,4.891,0,0,0,4.891-4.891A4.891,4.891,0,0,0-322.419,173.5Z" transform="translate(420.906 573.926)" fill="#fff"/>
    <text id="Car_Detection-Text" data-name="Car Detection-Text" transform="translate(69 787)" fill="#fff" font-size="13" font-family="Avenir-Roman, Avenir"><tspan x="-40.839" y="0">Car Detection</tspan></text>
  </g>
</svg>
