<svg xmlns="http://www.w3.org/2000/svg" width="96" height="70.445" viewBox="0 0 96 70.445">
  <g id="images" transform="translate(-252 -722.555)">
    <path id="Images-Icon" d="M-4731.22-728.428h-40.755V-769.5h41.073v41.073Zm-40.437-.318h40.437v-40.437h-40.437Zm.318-.318v-39.8h39.8v39.8Zm38.928-1.7.057,1.062h.182v-1.821l-3.1-.458a20.923,20.923,0,0,1-.767,2.279h1.494l.41-1.351Zm-8.439,1.062h4.38a20.576,20.576,0,0,0,.8-2.338l-4.713-.7C-4740.593-731.729-4740.741-730.71-4740.851-729.7Zm-6.623-.1a.279.279,0,0,1-.019.1h5.043c.112-1.082.266-2.179.487-3.267l-10.27-1.518,2.094,4.785H-4748a.269.269,0,0,1-.02-.1.273.273,0,0,1,.273-.273A.273.273,0,0,1-4747.473-729.8Zm-6.2-2.58,1.17,2.679h1.414l-2.121-4.848-2.9.463-.447,1.27,1.691-.235a1.146,1.146,0,0,1,.156-.011A1.136,1.136,0,0,1-4753.676-732.379Zm-17.028.621v.915a1.176,1.176,0,0,1,.14-.029l3.458-.48.11-1Zm4.115-.656-.111,1.006,5.734-.8.148-.443-.6-.592Zm7.076-1.129-.4,1.193,2.286-.317.438-1.247Zm25.432-4.846a10.781,10.781,0,0,0-.528,2.722c-.026.241-.052.49-.083.734a21.181,21.181,0,0,1-.371,2.1l2.89.427v-1.161h-1.785v-1.041h1.785v-.99h-1.087v-3.39h1.087v-.506a.276.276,0,0,1-.088.016.273.273,0,0,1-.273-.273.273.273,0,0,1,.273-.273.269.269,0,0,1,.088.016v-.775A5.268,5.268,0,0,0-4734.081-738.389Zm-36.623,5.746,8.493-1.355a15.161,15.161,0,0,1-3.859-4.166,13.1,13.1,0,0,1-3.174.865,13.887,13.887,0,0,1-1.459.132v.767h5.23v2.185h-5.23Zm33.536-7.339c-.328.446-.637.867-.923,1.308a16.5,16.5,0,0,0-2.1,5.085l4.735.7a20.831,20.831,0,0,0,.371-2.092c.03-.241.056-.488.082-.727a11.062,11.062,0,0,1,.553-2.822,5.666,5.666,0,0,1,2.279-2.739v-.463h-3.792C-4736.336-741.116-4736.756-740.542-4737.168-739.981Zm-23.765,6.665.255.251.1-.308Zm15.612-1.031,3.547.524a18.168,18.168,0,0,1,2.35-5.715c.311-.479.648-.939.976-1.384.2-.274.4-.543.586-.811h-6.342Zm-17.373-6.064a10.22,10.22,0,0,1-3.009,2.086,14.765,14.765,0,0,0,4.05,4.239l1.391-.222,2.942-8.8a3.709,3.709,0,0,1-.524-.044q-.081-.012-.16-.028a4.755,4.755,0,0,1-2.412-1.288A8.722,8.722,0,0,1-4762.694-740.411Zm9.368-1.6,4.956,7.209,2.186.323,1.136-7.51-6.483-5.114-.225.639.954.763-1.5,3.455-.7-.68Zm-5.874,7.529,2.343-.374.279-.792-.863.126a.256.256,0,0,1-.281-.328l.971-3.168a.256.256,0,0,1,.468-.05l.558,1,.435-1.235-1.3-2.977Zm4.895-4.749,1.661,3.8,3.737.552-4.582-6.666-.26.739a.273.273,0,0,1,.27.273.273.273,0,0,1-.273.273.273.273,0,0,1-.169-.06Zm-.8,2.274.383.687a.256.256,0,0,1-.186.378l-.6.088-.273.777,2.211-.353-1.156-2.643Zm-15.6-24.541a3.428,3.428,0,0,1,2.167,2.249,19.93,19.93,0,0,1,.3,2.3c.625,3.75,5.142,5.846,5.918,9.567a6.274,6.274,0,0,1-1.811,5.538,9.458,9.458,0,0,1-5.4,2.533,11.7,11.7,0,0,1-1.17.107v1.155a12.967,12.967,0,0,0,1.334-.122,10.611,10.611,0,0,0,6.054-2.863,7.4,7.4,0,0,0,2.119-6.584c-.444-2.132-1.918-3.78-3.219-5.234-1.249-1.395-2.427-2.712-2.69-4.288-.042-.253-.063-.528-.084-.82a7.754,7.754,0,0,0-.241-1.615,4.569,4.569,0,0,0-1.757-2.432,4.4,4.4,0,0,0-1.4-.665c-.038-.01-.076-.019-.115-.028Zm14.617,18.2,1.221,2.791.708-2.009-.9-1.307A3.853,3.853,0,0,1-4756.086-743.3Zm22.036-9.91a28.347,28.347,0,0,0-.257,3.659c-.014.511-.029,1.04-.055,1.564a14.259,14.259,0,0,1-1.131,5.378h3.32v-1.115h-2.079v-1.165h2.079v-.423a.276.276,0,0,1-.088.016.273.273,0,0,1-.273-.273.273.273,0,0,1,.273-.273.277.277,0,0,1,.088.016v-1.18h-1.231v-5.164h1.231v-.879l-1.863-.245C-4734.041-753.265-4734.046-753.237-4734.051-753.208Zm-9.949,10.6h6.708c.116-.2.225-.395.325-.6a12.641,12.641,0,0,0,1.018-4.858c.025-.506.039-1.026.053-1.53a29.987,29.987,0,0,1,.276-3.863c0-.015,0-.029.008-.045l-5.072-.666Zm-.82-.309.976-3.4h-5.29Zm-8.832-2.772a3.906,3.906,0,0,1-1.093,1.618l.75,1.091,1.67-4.743-.471-.371Zm-7.217-3.714a7.871,7.871,0,0,1,.529,1.614,7.374,7.374,0,0,1,.114,2.2,3.875,3.875,0,0,0,2.389,1.55l.129.023a2.861,2.861,0,0,0,.683.024l2.476-7.4c-.24-.036-.474-.063-.7-.082l-1.971,5.6a.478.478,0,0,1-.922-.057,16.2,16.2,0,0,0-1.623-4.5A4.836,4.836,0,0,0-4760.869-749.4Zm4.959,5.083a3.021,3.021,0,0,0,1.434-1.662l1.785-5q-.471-.132-.912-.231Zm4.683-3.65,1.589,1.253h5.907l1.127-3.932-7.628-.146-.159.452h1.613v.556h-1.681v-.363Zm-1.258-.993.468.369.782-2.22-.586-.011Zm-12.094-5.389c.26.306.536.614.814.925a17.473,17.473,0,0,1,2.7,3.625,5.3,5.3,0,0,1,1.1-.981,15.712,15.712,0,0,0-2.308-3.089c-.449-.468-.922-.911-1.359-1.379Zm14.487,3.163,7.6.146.929-3.238-7.114-.934-.149.425h.166v.516h-.348Zm-1.588-.03.584.011,1.456-4.134-.544-.072Zm-.683-3.708-1.113,3.331c.324.073.632.153.919.235l1.486-4.169-1.018-.134Q-4752.236-755.3-4752.362-754.927Zm-8.189-3.234a5.786,5.786,0,0,0,.449.564,9.5,9.5,0,0,0,4.617,2.718,1.213,1.213,0,0,1,.875,1.585l-.5,1.433c.235.022.467.051.694.085l1.154-3.453c.063-.19.133-.378.205-.564-2.08-.292-3.913-.7-5.309-1.977a7.6,7.6,0,0,1-1.143-1.373Zm26.689,4.009,1.689.222v-3.555A7.189,7.189,0,0,0-4733.862-754.152Zm-6.162-9.387-.515,8.51,5.094.669a8.78,8.78,0,0,1,2.2-4.3,6.143,6.143,0,0,1,1.075-.869v-.628a7.419,7.419,0,0,1-2.777-1.8,11.381,11.381,0,0,1-1.075-1.427c-.169-.251-.334-.5-.507-.73Zm-26.591,3.655c.008.025.017.049.023.074a8.418,8.418,0,0,1,.274,1.794c.02.271.039.527.075.741a5.9,5.9,0,0,0,1.409,2.618l.938-.888a6.6,6.6,0,0,1-.959-1.381,2.364,2.364,0,0,1,.692-2.981,1.783,1.783,0,0,1,2.211.005,6.516,6.516,0,0,1,1.169,1.412l1.048-.992c-.105-.164-.208-.329-.311-.492-.27-.432-.549-.879-.855-1.28a8.48,8.48,0,0,0-1.433-1.459Zm18.238,3.826,6.969.915.371-6.128-5.9,1.131-.408,1.156v2.471h-.87Zm-1.067-3.6a12.254,12.254,0,0,0-1.063,1.221l.392,2.152.773.1.129-.368v-2.681h.944l.246-.7Zm-2.269,3.163.688.09-.183-1C-4751.389-757.113-4751.559-756.809-4751.714-756.5Zm-2.484-2.589a3.32,3.32,0,0,0-.978.295,1.768,1.768,0,0,0-.909,1.406,14.65,14.65,0,0,0,3.378.758c.068-.148.141-.294.215-.439l-1.54-.177a1.907,1.907,0,0,1-.562-.123.644.644,0,0,1-.379-.408.651.651,0,0,1,.309-.659,1.911,1.911,0,0,1,.731-.241l.915-.169a1.172,1.172,0,0,1,.6-.006.932.932,0,0,1,.52.748q.213-.337.447-.66l-.1-.576A15.969,15.969,0,0,0-4754.2-759.085ZM-4761.33-763a9.151,9.151,0,0,1,1.124,1.22c.332.434.622.9.9,1.347a9.394,9.394,0,0,0,1.524,2.021,5.171,5.171,0,0,0,1.313.866,2.177,2.177,0,0,1,1.1-1.591,3.671,3.671,0,0,1,1.1-.335,16.422,16.422,0,0,1,2.637-.258l-.8-4.412q-1.4.132-2.807.134-.517,0-1.034-.019Zm9.766-1.237.806,4.429.176-.034a13.019,13.019,0,0,1,1.353-1.3l-.124.034-.319-3.417-.386.068c-.187.032-.372.062-.559.091a.271.271,0,0,1-.165.057.273.273,0,0,1-.1-.018C-4751.105-764.3-4751.335-764.269-4751.563-764.241Zm2.655,4.075,1.038-.2.292-.828A12.114,12.114,0,0,0-4748.908-760.166Zm2.121-.407,5.774-1.107.1-1.713-1.008.167-.054.9-4.452,1.214v-.5Zm-23.917-3.012c.115.023.229.048.342.078a5.283,5.283,0,0,1,1.679.8,5.518,5.518,0,0,1,1.733,2l3.861-2.551a12.776,12.776,0,0,0-3.668-1.6,22.767,22.767,0,0,0-3.947-.647Zm35.835.335a7.03,7.03,0,0,0,.559.695,6.335,6.335,0,0,0,2.137,1.453v-2.564Zm-12.805-1.631v2.617q.291-.178.592-.342l.658-1.868v-.625Zm12.1.6c.093.134.183.268.273.4l.177.263,2.949-.456v-.771Zm-28.7-.627a11.942,11.942,0,0,1,2.064,1.187l2.862-.581q-.589-.082-1.173-.188a.271.271,0,0,1-.206.1.272.272,0,0,1-.257-.183q-1.308-.258-2.594-.633C-4763.8-765.1-4764.031-765-4764.273-764.9Zm22.517-1.012-.1,1.715,1.009-.167.1-1.724Zm1.877-.03-.087,1.431,2.693-.446-.044-.041a3.832,3.832,0,0,0-2.513-.945Zm-21.7-2.094a3.57,3.57,0,0,1-.6,1.71,2.937,2.937,0,0,1-.364.42,28.7,28.7,0,0,0,6.533.932l3.3-.671-.47-2.582h-1.121v1.708h-6.429v-1.708h-.836C-4761.567-768.167-4761.573-768.1-4761.579-768.04Zm-9.125-.022v1.674a23.7,23.7,0,0,1,4.173.681,15.1,15.1,0,0,1,1.728.577c.225-.081.442-.164.65-.251q-.259-.081-.517-.167a.269.269,0,0,1-.171.062.273.273,0,0,1-.266-.212q-1.351-.475-2.667-1.083l-1.026-.475h-.833v-.385l-.99-.458A.266.266,0,0,1-4770.7-768.062Zm32.479,1.528a4.673,4.673,0,0,1,1.484.875,5.377,5.377,0,0,1,.515.524l1.053-.174c-.147-.144-.282-.306-.42-.459a7.086,7.086,0,0,0-1.14-1.027Zm-13.074,1.3q.538-.074,1.076-.168l1.527-.267,1.021-.463v.284l1.848-.323.651-1.847Zm-.573-.7,5.049-2.3h-1.818l-2.485,1.147a.265.265,0,0,1-.372-.195l-.167-.952h-.624Zm-11.128-.1a2.653,2.653,0,0,0,.5-.526,3.177,3.177,0,0,0,.525-1.522c.005-.049.009-.1.013-.148h-1.127v.973h-1.7v-.973h-.728v.973h-.976A29.124,29.124,0,0,0-4763-766.034Zm18.374-.675,3-1.359-.07,1.175,1.01-.177.07-1.16h-3.473Zm4.824-.516,1.622-.284a3.477,3.477,0,0,0-.486-.1.429.429,0,0,1-.371-.46l.013-.162h-.717Zm-28.133-.682.563.261.164.074v-.657h-.727Zm22.562,38.129v-2.857h1.363v2.857Zm5.713-.238v-1.488h2.522v1.488Zm-9.653-.437-.695-2.42h3.466v2.42Zm14.224-.4a.273.273,0,0,1,.273-.273.273.273,0,0,1,.273.273.273.273,0,0,1-.273.273A.273.273,0,0,1-4735.089-730.857Zm-8.079-1.585a.273.273,0,0,1,.273-.273.273.273,0,0,1,.273.273.273.273,0,0,1-.273.273A.273.273,0,0,1-4743.168-732.442Zm-27.351-1a.273.273,0,0,1,.273-.273.273.273,0,0,1,.273.273.273.273,0,0,1-.273.273A.273.273,0,0,1-4770.519-733.447Zm31.438-.647a.273.273,0,0,1,.273-.273.273.273,0,0,1,.273.273.273.273,0,0,1-.273.273A.273.273,0,0,1-4739.082-734.094Zm-25.619-.424a.273.273,0,0,1,.273-.273.273.273,0,0,1,.273.273.273.273,0,0,1-.273.273A.273.273,0,0,1-4764.7-734.518Zm25.539-.465,1.114-2.116h2.73l-.51,2.467Zm-22.46-.049a.273.273,0,0,1,.273-.273.273.273,0,0,1,.273.273.273.273,0,0,1-.273.273A.273.273,0,0,1-4761.622-735.032Zm18.834.237-1.264-.181a.4.4,0,0,1-.335-.452l.776-5.082a.4.4,0,0,1,.391-.336h2.948a.4.4,0,0,1,.319.628,15.543,15.543,0,0,0-2.4,5.131.4.4,0,0,1-.382.294A.4.4,0,0,1-4742.788-734.795Zm-4.3-.269a.273.273,0,0,1,.273-.273.273.273,0,0,1,.273.273.273.273,0,0,1-.273.273A.273.273,0,0,1-4747.088-735.064Zm-5.158-.877a.273.273,0,0,1,.273-.273.273.273,0,0,1,.273.273.273.273,0,0,1-.273.273A.274.274,0,0,1-4752.246-735.941Zm-11.4-1.653,2.725-4.009,2.152.861-1.846,4.615Zm10.692.006,1.278-.471.612.957-1.437.424Zm3.852-1.524,1.688-3.876,1.481,1.185-.854,4.953Zm11.361,1.438.691-1.312h2.128l-.272,1.312Zm-16.007-1.51,1.1-.4.758,1.186-1.237.456Zm17-.377.487-.924h1.648l-.191.924Zm-15.071-2.206,1.532-3.519,2.358,1.886-1.66,3.812Zm17.865.647a.273.273,0,0,1,.273-.273.273.273,0,0,1,.273.273.273.273,0,0,1-.273.273A.273.273,0,0,1-4733.958-741.118Zm-26.306-1.869a.273.273,0,0,1,.273-.273.273.273,0,0,1,.273.273.273.273,0,0,1-.273.273A.273.273,0,0,1-4760.264-742.988Zm17.829-.39,1.589-6.091h.97v2.225h2.076v3.866Zm-3.053-.927a.273.273,0,0,1,.273-.273.274.274,0,0,1,.273.273.274.274,0,0,1-.273.273A.273.273,0,0,1-4745.488-744.3Zm-12.625-.349a.273.273,0,0,1,.273-.273.273.273,0,0,1,.273.273.273.273,0,0,1-.273.273A.273.273,0,0,1-4758.113-744.653Zm10.479-1.047a.273.273,0,0,1,.273-.273.273.273,0,0,1,.273.273.273.273,0,0,1-.273.273A.273.273,0,0,1-4747.635-745.7Zm2.783-.119a.273.273,0,0,1,.273-.273.273.273,0,0,1,.273.273.273.273,0,0,1-.273.273A.273.273,0,0,1-4744.852-745.819Zm-14.671-.124a.273.273,0,0,1,.273-.273.273.273,0,0,1,.273.273.273.273,0,0,1-.273.273A.273.273,0,0,1-4759.523-745.943Zm22.342-.654a.273.273,0,0,1,.273-.273.273.273,0,0,1,.273.273.273.273,0,0,1-.273.273A.273.273,0,0,1-4737.181-746.6Zm-9.907-.739v-2.728h3.476l-.821,2.728Zm-3.37-.652v-.556h1.681v.556Zm11.876-.13v-1.946h1.946v1.946Zm-11.876-.769v-.556h1.681v.556Zm9.93-2.046.618-2.217,3.274.33v1.887Zm-8.487-.908v-1.788h5.892v1.788Zm1.5-2.434a.274.274,0,0,1,.273-.273.273.273,0,0,1,.273.273.273.273,0,0,1-.273.273A.273.273,0,0,1-4747.511-754.274Zm14.7-.644a.273.273,0,0,1,.273-.273.273.273,0,0,1,.272.273.273.273,0,0,1-.272.273A.273.273,0,0,1-4732.807-754.919Zm-21.477-.325a.273.273,0,0,1,.273-.273.273.273,0,0,1,.273.273.273.273,0,0,1-.273.273A.273.273,0,0,1-4754.284-755.243Zm14.6-.548.125-2.38h3.925l-.177,2.811Zm-6.832-.581V-758.7h4.541l-.131,2.829Zm-10.879-2.326a.273.273,0,0,1,.273-.273.273.273,0,0,1,.273.273.273.273,0,0,1-.273.273A.273.273,0,0,1-4757.392-758.7Zm17.866-.126.125-2.395,3.95.112-.144,2.283Zm5.376-.817a.273.273,0,0,1,.273-.273.273.273,0,0,1,.273.273.274.274,0,0,1-.273.273A.273.273,0,0,1-4734.15-759.642Zm-8.745-.024a.273.273,0,0,1,.273-.273.273.273,0,0,1,.273.273.273.273,0,0,1-.273.273A.273.273,0,0,1-4742.9-759.666Zm-1.769,0a.273.273,0,0,1,.272-.273.273.273,0,0,1,.273.273.273.273,0,0,1-.273.273A.273.273,0,0,1-4744.664-759.666Zm-12.982-2.354h4.672v1.958l-4.672.523Zm-1.11,1.732a.273.273,0,0,1,.273-.273.273.273,0,0,1,.273.273.273.273,0,0,1-.273.273A.273.273,0,0,1-4758.757-760.288Zm-5.493-.491a.273.273,0,0,1,.273-.273.273.273,0,0,1,.273.273.273.273,0,0,1-.273.273A.273.273,0,0,1-4764.25-760.78Zm.87-.652,1-.84.487.582-1,.84Zm3.848.186v-1.46l1.321-.267v1.727Zm-7.429-.415a.273.273,0,0,1,.273-.273.273.273,0,0,1,.272.273.273.273,0,0,1-.272.273A.273.273,0,0,1-4766.96-761.66Zm33.88-.916a.273.273,0,0,1,.273-.273.273.273,0,0,1,.273.273.273.273,0,0,1-.273.273A.273.273,0,0,1-4733.08-762.576Zm-5.5,0a.273.273,0,0,1,.273-.273.273.273,0,0,1,.273.273.273.273,0,0,1-.273.273A.273.273,0,0,1-4738.582-762.576Zm-17.862,0v-.636l3.469-.675v1.311Zm-9.705-.106v-1.2h1.205v1.2Zm-2.066-.5v-1.2h1.205v1.2Zm-2.019-.6v-1.2h1.205v1.2Zm7.918-.6a.274.274,0,0,1,.273-.273.273.273,0,0,1,.273.273.273.273,0,0,1-.273.273A.273.273,0,0,1-4762.315-764.39Zm22.915-.8a.273.273,0,0,1,.273-.273.273.273,0,0,1,.273.273.273.273,0,0,1-.273.273A.273.273,0,0,1-4739.4-765.191Zm-14.428-1.058a.273.273,0,0,1,.273-.273.273.273,0,0,1,.273.273.273.273,0,0,1-.273.273A.273.273,0,0,1-4753.828-766.249Z" transform="translate(5051.859 1492.556)" fill="#fff" stroke="rgba(0,0,0,0)" stroke-width="1"/>
    <text id="Upload_Images-Text" data-name="Upload Images-Text" transform="translate(300 788)" fill="#fff" font-size="14" font-family="Avenir-Roman, Avenir"><tspan x="-47.467" y="0">Upload Images</tspan></text>
  </g>
</svg>
