<?xml version="1.0" standalone="no"?>
<!DOCTYPE svg PUBLIC "-//W3C//DTD SVG 20010904//EN"
 "http://www.w3.org/TR/2001/REC-SVG-20010904/DTD/svg10.dtd">
<svg version="1.0" xmlns="http://www.w3.org/2000/svg"
 width="1856.000000pt" height="1856.000000pt" viewBox="0 0 1856.000000 1856.000000"
 preserveAspectRatio="xMidYMid meet">
<metadata>
Created by potrace 1.16, written by Peter Selinger 2001-2019
</metadata>
<g transform="translate(0.000000,1856.000000) scale(0.100000,-0.100000)"
fill="#000000" stroke="none">
<path d="M0 14240 l0 -4320 640 0 640 0 0 160 0 160 480 0 480 0 0 160 0 160
160 0 160 0 0 160 0 160 160 0 160 0 0 160 0 160 320 0 320 0 0 160 0 160 160
0 160 0 0 160 0 160 320 0 320 0 0 320 0 320 160 0 160 0 0 160 0 160 160 0
160 0 0 320 0 320 160 0 160 0 0 480 0 480 160 0 160 0 0 640 0 640 160 0 160
0 0 320 0 320 160 0 160 0 0 320 0 320 160 0 160 0 0 320 0 320 160 0 160 0 0
320 0 320 160 0 160 0 0 160 0 160 -3680 0 -3680 0 0 -4320z"/>
<path d="M8000 18400 l0 -160 -160 0 -160 0 0 -320 0 -320 -160 0 -160 0 0
-320 0 -320 -160 0 -160 0 0 -160 0 -160 -160 0 -160 0 0 -480 0 -480 -160 0
-160 0 0 -320 0 -320 -160 0 -160 0 0 -640 0 -640 -160 0 -160 0 0 -320 0
-320 160 0 160 0 0 -800 0 -800 160 0 160 0 0 -160 0 -160 160 0 160 0 0 -160
0 -160 160 0 160 0 0 -640 0 -640 480 0 480 0 0 160 0 160 800 0 800 0 0 160
0 160 640 0 640 0 0 160 0 160 -800 0 -800 0 0 -160 0 -160 -800 0 -800 0 0
320 0 320 960 0 960 0 0 160 0 160 960 0 960 0 0 160 0 160 1600 0 1600 0 0
-160 0 -160 -800 0 -800 0 0 -160 0 -160 -800 0 -800 0 0 -160 0 -160 1440 0
1440 0 0 160 0 160 320 0 320 0 0 -320 0 -320 -960 0 -960 0 0 -160 0 -160
-1280 0 -1280 0 0 -160 0 -160 -1120 0 -1120 0 0 -160 0 -160 -320 0 -320 0 0
-480 0 -480 -160 0 -160 0 0 -160 0 -160 -480 0 -480 0 0 160 0 160 -320 0
-320 0 0 -160 0 -160 -320 0 -320 0 0 -160 0 -160 -160 0 -160 0 0 -320 0
-320 -160 0 -160 0 0 -480 0 -480 -160 0 -160 0 0 -1120 0 -1120 -320 0 -320
0 0 480 0 480 160 0 160 0 0 800 0 800 160 0 160 0 0 640 0 640 -160 0 -160 0
0 160 0 160 -160 0 -160 0 0 160 0 160 -320 0 -320 0 0 160 0 160 -1280 0
-1280 0 0 -160 0 -160 -160 0 -160 0 0 -4160 0 -4160 9280 0 9280 0 0 9280 0
9280 -5280 0 -5280 0 0 -160z"/>
<path d="M5120 12320 l0 -160 160 0 160 0 0 160 0 160 -160 0 -160 0 0 -160z"/>
<path d="M4480 11360 l0 -160 -320 0 -320 0 0 -160 0 -160 -160 0 -160 0 0
-800 0 -800 160 0 160 0 0 -320 0 -320 960 0 960 0 0 160 0 160 160 0 160 0 0
320 0 320 160 0 160 0 0 480 0 480 -160 0 -160 0 0 160 0 160 -160 0 -160 0 0
160 0 160 -160 0 -160 0 0 160 0 160 -480 0 -480 0 0 -160z"/>
<path d="M1920 9760 l0 -160 -640 0 -640 0 0 -320 0 -320 1120 0 1120 0 0 480
0 480 -480 0 -480 0 0 -160z"/>
</g>
</svg>
