<svg xmlns="http://www.w3.org/2000/svg" width="92" height="73.734" viewBox="0 0 92 73.734">
  <g id="roads" transform="translate(-136 -718.266)">
    <path id="Road-Icon" d="M-3673.759-504.22a8.072,8.072,0,0,1-8.066-8.062l0-12.008a2.864,2.864,0,0,0-2.861-2.86l-10.767,0v-.379l10.767,0a3.243,3.243,0,0,1,3.24,3.238l0,12.008a7.694,7.694,0,0,0,7.688,7.683h.563a7.694,7.694,0,0,0,7.683-7.688l-.009-31.2a3.243,3.243,0,0,1,3.238-3.24,3.243,3.243,0,0,1,3.24,3.238l0,19.146a7.7,7.7,0,0,0,7.688,7.683h.563a7.7,7.7,0,0,0,7.684-7.688v-1.126a3.242,3.242,0,0,1,3.238-3.24l10.632,0v.378l-10.632,0a2.864,2.864,0,0,0-2.86,2.861v1.126a8.073,8.073,0,0,1-8.062,8.066h-.563a8.072,8.072,0,0,1-8.066-8.061l-.005-19.146a2.864,2.864,0,0,0-2.861-2.86,2.864,2.864,0,0,0-2.86,2.862l.009,31.2a8.073,8.073,0,0,1-8.062,8.066Zm0-.567a7.5,7.5,0,0,1-7.5-7.494l0-12.008a3.432,3.432,0,0,0-3.429-3.428l-10.767,0v-1.868h1.183v-.331h-1.183v-1.869l10.767,0a7.5,7.5,0,0,1,7.5,7.494l0,12.008a3.432,3.432,0,0,0,3.429,3.427h.563a3.432,3.432,0,0,0,3.427-3.429l-.009-31.2a7.5,7.5,0,0,1,7.494-7.5,7.5,7.5,0,0,1,7.5,7.494l.005,19.146a3.432,3.432,0,0,0,3.429,3.427h.563a3.432,3.432,0,0,0,3.427-3.429v-1.126a7.5,7.5,0,0,1,7.494-7.5l10.631,0v1.868h-1.182v.331h1.183v1.868l-10.632,0a3.433,3.433,0,0,0-3.427,3.429v1.126a7.5,7.5,0,0,1-7.494,7.5h-.563a7.5,7.5,0,0,1-7.5-7.494l-.005-19.146a3.432,3.432,0,0,0-3.429-3.427,3.432,3.432,0,0,0-3.427,3.429l.009,31.2a7.5,7.5,0,0,1-7.494,7.5Zm1.052-2.222.03.33a5.564,5.564,0,0,0,2.283-.724l-.165-.287A5.232,5.232,0,0,1-3672.708-507.01Zm-4.511-.834a5.567,5.567,0,0,0,2.158,1.037l.077-.322a5.243,5.243,0,0,1-2.032-.975Zm8.331-1.36.269.193a5.573,5.573,0,0,0,.947-2.2l-.326-.063A5.231,5.231,0,0,1-3668.889-509.2Zm-10.493-2.79a5.569,5.569,0,0,0,.629,2.311l.293-.153a5.24,5.24,0,0,1-.591-2.175Zm11.48-1.585h.331v-2.343h-.331Zm-11.488-.766h.331v-2.343h-.331Zm11.487-3.919h.331v-2.343h-.331Zm16.72-.449h.395a5.6,5.6,0,0,0,1.965-.353l-.116-.31a5.274,5.274,0,0,1-1.849.332h-.395Zm-28.209-2.659v2.343h.331v-2.343Zm23.9.845a5.683,5.683,0,0,0,1.959,1.377l.128-.305a5.35,5.35,0,0,1-1.844-1.3Zm8.448-.068.234.234a5.676,5.676,0,0,0,1.3-2.014l-.31-.115A5.343,5.343,0,0,1-3647.044-520.6Zm-9.937-3.743a5.62,5.62,0,0,0,.277,1.746l.314-.1a5.3,5.3,0,0,1-.26-1.643v-.62h-.331Zm-10.924,1.39h.331v-2.343h-.331Zm-11.762-3.025a5.282,5.282,0,0,1,.274,1.684v.574h.331v-.574a5.606,5.606,0,0,0-.291-1.79Zm34.173.506v.734h.331v-.734a5.3,5.3,0,0,1,.226-1.538l-.317-.1A5.641,5.641,0,0,0-3645.494-525.469Zm-11.488-1.833h.331v-2.343h-.331Zm-10.925-.333h.332v-2.343h-.331Zm-14.771-1.555a5.34,5.34,0,0,1,1.855,1.281l.241-.226a5.672,5.672,0,0,0-1.97-1.361Zm38.592,0,.248.219a5.343,5.343,0,0,1,1.816-1.335l-.135-.3A5.681,5.681,0,0,0-3644.086-529.193Zm-47.846-.721v.331h2.343v-.331Zm4.685,0v.331h2.343v-.331Zm47.433-1.182v.331h2.343v-.331Zm4.686,0v.331h2.343v-.331Zm-21.854-.887h.331v-2.343h-.331Zm-10.925-.333h.331v-2.343h-.332Zm10.923-4.352h.331v-2.343h-.331Zm-10.924-.333h.331v-2.343h-.331Zm10.919-6.688c0,.069,0,.139,0,.209v2.127h.331v-2.127c0-.074,0-.149,0-.222Zm-10.921.212v1.79h.331v-1.791c0-.178.009-.358.026-.534l-.33-.033C-3667.9-543.862-3667.91-543.671-3667.91-543.482Zm8.932-4.142a5.343,5.343,0,0,1,1.423,1.748l.3-.15a5.692,5.692,0,0,0-1.511-1.857Zm-8.162,1.3.286.168a5.355,5.355,0,0,1,1.527-1.659l-.191-.271A5.693,5.693,0,0,0-3667.14-546.327Zm6.142-2.3.08-.321a5.658,5.658,0,0,0-1.367-.167,5.672,5.672,0,0,0-1.027.094l.061.326a5.317,5.317,0,0,1,.967-.088h0A5.31,5.31,0,0,1-3661-548.623Zm-16,36.341,0-12.008a7.694,7.694,0,0,0-7.687-7.683l-10.766,0v-.378l10.767,0a8.072,8.072,0,0,1,8.066,8.061l0,12.008a2.864,2.864,0,0,0,2.861,2.86h.563a2.863,2.863,0,0,0,2.859-2.862l-.008-31.2a8.072,8.072,0,0,1,8.062-8.066,8.073,8.073,0,0,1,8.066,8.062l.006,19.146a2.864,2.864,0,0,0,2.861,2.86h.563a2.864,2.864,0,0,0,2.86-2.861v-1.126a8.074,8.074,0,0,1,8.062-8.066l10.631,0v.378l-10.631,0a7.7,7.7,0,0,0-7.684,7.688v1.126a3.242,3.242,0,0,1-3.238,3.24h-.563a3.244,3.244,0,0,1-3.24-3.238l0-19.146a7.694,7.694,0,0,0-7.687-7.683,7.694,7.694,0,0,0-7.683,7.688l.009,31.2a3.243,3.243,0,0,1-3.238,3.24h-.563A3.243,3.243,0,0,1-3677-512.283Z" transform="translate(3845.249 1270.313)" fill="#fff" stroke="rgba(0,0,0,0)" stroke-width="1"/>
    <text id="Road_Detection-Text" data-name="Road Detection-Text" transform="translate(182 787)" fill="#fff" font-size="13" font-family="Avenir-Roman, Avenir"><tspan x="-45.779" y="0">Road Detection</tspan></text>
  </g>
</svg>
